<svg width="1200" height="630" viewBox="0 0 1200 630" fill="none" xmlns="http://www.w3.org/2000/svg" role="img" aria-labelledby="title desc">
  <title id="title">Senad | DevOps Portfolio</title>
  <desc id="desc">AWS-certified DevOps engineer portfolio focused on secure automation, delivery reliability, and measurable cloud outcomes.</desc>

  <defs>
    <linearGradient id="bg" x1="0" y1="0" x2="1200" y2="630" gradientUnits="userSpaceOnUse">
      <stop stop-color="#050816" />
      <stop offset="1" stop-color="#0B1220" />
    </linearGradient>
    <radialGradient id="glow1" cx="0" cy="0" r="1" gradientUnits="userSpaceOnUse" gradientTransform="translate(980 60) rotate(130) scale(520 420)">
      <stop stop-color="#8B5CF6" stop-opacity="0.42" />
      <stop offset="1" stop-color="#8B5CF6" stop-opacity="0" />
    </radialGradient>
    <radialGradient id="glow2" cx="0" cy="0" r="1" gradientUnits="userSpaceOnUse" gradientTransform="translate(140 80) rotate(60) scale(420 300)">
      <stop stop-color="#22D3EE" stop-opacity="0.28" />
      <stop offset="1" stop-color="#22D3EE" stop-opacity="0" />
    </radialGradient>
  </defs>

  <rect width="1200" height="630" fill="url(#bg)" />
  <rect width="1200" height="630" fill="url(#glow1)" />
  <rect width="1200" height="630" fill="url(#glow2)" />

  <g opacity="0.28" stroke="#25324A">
    <path d="M0 80H1200" />
    <path d="M0 160H1200" />
    <path d="M0 240H1200" />
    <path d="M0 320H1200" />
    <path d="M0 400H1200" />
    <path d="M0 480H1200" />
    <path d="M0 560H1200" />
    <path d="M100 0V630" />
    <path d="M220 0V630" />
    <path d="M340 0V630" />
    <path d="M460 0V630" />
    <path d="M580 0V630" />
    <path d="M700 0V630" />
    <path d="M820 0V630" />
    <path d="M940 0V630" />
    <path d="M1060 0V630" />
  </g>

  <rect x="72" y="138" width="1056" height="354" rx="20" fill="#121A2B" fill-opacity="0.92" stroke="#25324A" />

  <text x="120" y="230" fill="#22D3EE" font-size="28" font-family="Inter, Segoe UI, Arial, sans-serif" letter-spacing="4" text-transform="uppercase">DevOps &amp; Cloud Engineer</text>
  <text x="120" y="310" fill="#E8EEFF" font-size="58" font-weight="700" font-family="Inter, Segoe UI, Arial, sans-serif">Senad Dizdarevic</text>
  <text x="120" y="365" fill="#A7B4D1" font-size="30" font-family="Inter, Segoe UI, Arial, sans-serif">Secure AWS delivery • Automation • Observability</text>

  <g transform="translate(120 410)">
    <rect width="300" height="50" rx="10" fill="#22D3EE" fill-opacity="0.18" stroke="#22D3EE" />
    <text x="20" y="33" fill="#E8EEFF" font-size="24" font-family="Inter, Segoe UI, Arial, sans-serif">5+ years delivery impact</text>
  </g>

  <g transform="translate(440 410)">
    <rect width="360" height="50" rx="10" fill="#8B5CF6" fill-opacity="0.18" stroke="#8B5CF6" />
    <text x="20" y="33" fill="#E8EEFF" font-size="24" font-family="Inter, Segoe UI, Arial, sans-serif">Terraform • CI/CD • AWS</text>
  </g>
</svg>
